<?xml version="1.0" encoding="UTF-8" standalone="no"?>
<!-- Generator: Adobe Illustrator 16.0.0, SVG Export Plug-In . SVG Version: 6.00 Build 0)  -->

<svg
   xmlns:dc="http://purl.org/dc/elements/1.1/"
   xmlns:cc="http://creativecommons.org/ns#"
   xmlns:rdf="http://www.w3.org/1999/02/22-rdf-syntax-ns#"
   xmlns:svg="http://www.w3.org/2000/svg"
   xmlns="http://www.w3.org/2000/svg"
   xmlns:sodipodi="http://sodipodi.sourceforge.net/DTD/sodipodi-0.dtd"
   xmlns:inkscape="http://www.inkscape.org/namespaces/inkscape"
   version="1.1"
   id="Layer_1"
   x="0px"
   y="0px"
   width="400"
   height="332.5"
   viewBox="0 0 400 332.5"
   enable-background="new 0 0 745.199 161.769"
   xml:space="preserve"
   inkscape:version="0.91 r13725"
   sodipodi:docname="metalsmithlogo.svg"><metadata
     id="metadata29"><rdf:RDF><cc:Work
         rdf:about=""><dc:format>image/svg+xml</dc:format><dc:type
           rdf:resource="http://purl.org/dc/dcmitype/StillImage" /><dc:title></dc:title></cc:Work></rdf:RDF></metadata><defs
     id="defs27" /><sodipodi:namedview
     pagecolor="#ffffff"
     bordercolor="#666666"
     borderopacity="1"
     objecttolerance="10"
     gridtolerance="10"
     guidetolerance="10"
     inkscape:pageopacity="0"
     inkscape:pageshadow="2"
     inkscape:window-width="640"
     inkscape:window-height="480"
     id="namedview25"
     showgrid="false"
     inkscape:showpageshadow="false"
     fit-margin-top="0"
     fit-margin-left="0"
     fit-margin-right="0"
     fit-margin-bottom="0"
     inkscape:zoom="0.3905"
     inkscape:cx="372.6"
     inkscape:cy="102.6"
     inkscape:window-x="0"
     inkscape:window-y="0"
     inkscape:window-maximized="0"
     inkscape:current-layer="Layer_1"
     showborder="true"
     showguides="true"><inkscape:grid
       type="xygrid"
       id="grid3379" /></sodipodi:namedview><path
     style="fill:#262727"
     inkscape:connector-curvature="0"
     id="path5"
     d="M 64.21,125.7 84.43,0.5002 l 28.17,0 0,158.9998 -17.72,0 0,-131.5 -21.81,131.5 -18.63,0 L 32.63,28 l 0,131.5 -17.27,0 0,-158.9998 28.63,0 L 64.21,125.7 Z" /><path
     style="fill:#262727"
     inkscape:connector-curvature="0"
     id="path7"
     d="m 179.8,0.5002 0,16.7998 -31.8,0 0,52.7 30.7,0 0,16.6 -30.7,0 0,56.1 32.2,0 0,16.8 -50.4,0 0,-158.9998 50,0 z" /><path
     style="fill:#262727"
     inkscape:connector-curvature="0"
     id="path9"
     d="m 211.6,159.5 0,-142.2 -23.9,0 0,-16.7998 65.9,0 0,16.7998 -23.8,0 0,142.2 -18.2,0 z" /><path
     style="fill:#262727"
     inkscape:connector-curvature="0"
     id="path11"
     d="m 322.9,159.5 -17.9,0 -3.9,-26.6 -29.3,0 -3.6,26.6 -17.5,0 24.5,-159.4998212 23.2,0 L 322.9,159.5 Z m -48.8,-42.9 24.7,0 -12.2,-87.9 -12.5,87.9 z" /><path
     style="fill:#262727"
     inkscape:connector-curvature="0"
     id="path13"
     d="m 353.6,0.5002 0,142.1998 30,0 0,16.8 -48.2,0 0,-158.9998 18.2,0 z" /><g
     id="g3371"
     transform="translate(-348.3,164.3)"><path
       d="m 507.3,133 20.2,-125.218 28.2,0 0,159.018 -17.7,0 0,-131.52 -21.8,131.52 -18.6,0 -21.9,-131.52 0,131.52 -17.2,0 0,-159.018 28.6,0 L 507.3,133 Z"
       id="path17"
       inkscape:connector-curvature="0"
       style="fill:#262727" /><path
       d="m 591.4,166.8 -18.2,0 0,-159.018 18.2,0 0,159.018 z"
       id="path19"
       inkscape:connector-curvature="0"
       style="fill:#262727" /><path
       d="m 626.4,166.8 0,-142.22 -23.9,0 0,-16.798 65.9,0 0,16.798 -23.8,0 0,142.22 -18.2,0 z"
       id="path21"
       inkscape:connector-curvature="0"
       style="fill:#262727" /><g
       id="g3367"><path
         style="fill:#262727"
         inkscape:connector-curvature="0"
         id="path15"
         d="m 442.4,115.5 0,23.1 c 0,19.8 -9.8,29.6 -29.6,29.6 l -5,0 c -19.5,0 -29.1,-9.8 -29.1,-29.1 l 0,-33.4 17.8,0 0,34.1 c 0,8.1 3.8,12 12,12 l 3.6,0 c 8.2,0 12.1,-3.9 12.1,-12 l 0,-23.9 c 0,-7.9 -2.8,-11.3 -8,-15.2 L 394,84.58 c -11.9,-8.4 -15.3,-16.6 -15.3,-29.5 l 0,-19.1 c 0,-19.8 9.8,-29.598 29.6,-29.598 l 4.5,0 c 19.6,0 29.1,9.798 29.1,29.098 l 0,28.6 -17.7,0 0,-29.3 c 0,-8.1 -3.9,-12 -12.1,-12 l -3.1,0 c -8.2,0 -12.1,3.9 -12.1,12 l 0,20 c 0,8 3,11.4 8.2,15.3 l 22,15.9 c 11.6,8.4 15.3,15.92 15.3,29.52 z" /><path
         style="fill:#262727"
         inkscape:connector-curvature="0"
         id="path23"
         d="m 727,77.08 0,-69.298 18.2,0 0,159.018 -18.2,0 0,-72.72 -29.5,0 0,72.72 -18.2,0 0,-159.018 18.2,0 0,69.298 29.5,0 z" /></g></g></svg>