<?xml version="1.0" ?><svg enable-background="new 0 0 455 282" id="Layer_1" version="1.1" viewBox="0 0 455 282" xml:space="preserve" xmlns="http://www.w3.org/2000/svg" xmlns:xlink="http://www.w3.org/1999/xlink"><g><g><path d="M225.686,277.337c-1.46,0-2.913-0.382-4.19-1.121l-13.34-7.892c-1.991-1.115-1.018-1.509-0.362-1.738    c2.658-0.922,3.195-1.135,6.031-2.744c0.295-0.166,0.687-0.103,0.992,0.076l10.248,6.084c0.372,0.206,0.896,0.206,1.238,0    l39.953-23.061c0.372-0.212,0.61-0.64,0.61-1.081v-46.108c0-0.451-0.239-0.872-0.62-1.101L226.31,175.61    c-0.368-0.216-0.859-0.216-1.231,0l-39.927,23.047c-0.388,0.222-0.634,0.657-0.634,1.095v46.108c0,0.441,0.245,0.859,0.63,1.068    l10.945,6.324c5.938,2.969,9.574-0.528,9.574-4.041v-45.524c0-0.643,0.518-1.151,1.161-1.151h5.066    c0.634,0,1.158,0.508,1.158,1.151v45.523c0,7.926-4.316,12.471-11.83,12.471c-2.309,0-4.127,0-9.203-2.501l-10.477-6.031    c-2.588-1.496-4.19-4.293-4.19-7.289v-46.108c0-2.996,1.602-5.793,4.19-7.282l39.953-23.087c2.528-1.43,5.889-1.43,8.397,0    l39.95,23.087c2.588,1.496,4.197,4.286,4.197,7.282v46.108c0,2.996-1.609,5.782-4.197,7.289l-39.95,23.067    C228.615,276.955,227.166,277.337,225.686,277.337z" fill="#699F63"/><path d="M238.027,245.571c-17.483,0-21.146-8.025-21.146-14.756c0-0.64,0.514-1.151,1.155-1.151h5.165    c0.577,0,1.058,0.415,1.148,0.979c0.78,5.258,3.105,7.912,13.678,7.912c8.417,0,12-1.904,12-6.37    c0-2.574-1.015-4.485-14.096-5.766c-10.931-1.081-17.693-3.497-17.693-12.242c0-8.062,6.794-12.869,18.187-12.869    c12.799,0,19.132,4.442,19.935,13.974c0.03,0.328-0.086,0.644-0.305,0.889c-0.219,0.229-0.524,0.368-0.846,0.368h-5.185    c-0.537,0-1.012-0.382-1.121-0.902c-1.244-5.534-4.27-7.302-12.477-7.302c-9.19,0-10.258,3.202-10.258,5.6    c0,2.906,1.261,3.752,13.669,5.394c12.278,1.622,18.11,3.921,18.11,12.551C257.946,240.585,250.687,245.571,238.027,245.571z" fill="#699F63"/></g><g><path d="M295.638,197.216c0,4.237-3.464,7.7-7.7,7.7c-4.197,0-7.7-3.422-7.7-7.7c0-4.359,3.586-7.702,7.7-7.702    C292.095,189.514,295.638,192.856,295.638,197.216z M281.482,197.194c0,3.586,2.893,6.479,6.436,6.479    c3.586,0,6.479-2.954,6.479-6.479c0-3.585-2.932-6.436-6.479-6.436C284.415,190.758,281.482,193.568,281.482,197.194z     M285.045,192.896h2.976c1.018,0,3.016,0,3.016,2.283c0,1.589-1.018,1.914-1.632,2.118c1.184,0.082,1.264,0.856,1.426,1.956    c0.083,0.692,0.206,1.875,0.448,2.281h-1.831c-0.043-0.406-0.328-2.608-0.328-2.729c-0.119-0.49-0.285-0.733-0.896-0.733h-1.506    v3.462h-1.672v-8.638H285.045z M286.677,196.685h1.344c1.098,0,1.304-0.773,1.304-1.221c0-1.183-0.816-1.183-1.264-1.183h-1.383    L286.677,196.685L286.677,196.685z" fill="#699F63"/></g><path d="M101.964,96.943c0-1.841-0.969-3.533-2.558-4.446L57.047,68.119c-0.716-0.421-1.52-0.64-2.332-0.674   c-0.073,0-0.378,0-0.438,0c-0.81,0.033-1.612,0.252-2.339,0.674L9.579,92.497C8,93.409,7.018,95.101,7.018,96.943l0.093,65.641   c0,0.912,0.474,1.762,1.277,2.21c0.786,0.471,1.758,0.471,2.541,0l25.174-14.415c1.592-0.945,2.561-2.614,2.561-4.439v-30.668   c0-1.828,0.969-3.52,2.554-4.429l10.719-6.174c0.799-0.461,1.672-0.687,2.565-0.687c0.872,0,1.768,0.226,2.544,0.687l10.716,6.174   c1.586,0.909,2.558,2.601,2.558,4.429v30.668c0,1.825,0.982,3.504,2.565,4.439l25.167,14.415c0.79,0.471,1.775,0.471,2.558,0   c0.78-0.448,1.271-1.297,1.271-2.21L101.964,96.943z" fill="#333333"/><path d="M305.781,6.708c-0.793-0.441-1.76-0.431-2.543,0.028c-0.781,0.46-1.262,1.299-1.262,2.206v65.006   c0,0.639-0.342,1.231-0.894,1.551c-0.554,0.32-1.238,0.32-1.792,0l-10.609-6.113c-1.583-0.912-3.53-0.91-5.112,0.002   l-42.376,24.455c-1.584,0.914-2.559,2.603-2.559,4.431v48.921c0,1.828,0.975,3.517,2.558,4.432l42.374,24.474   c1.584,0.914,3.535,0.914,5.119,0l42.38-24.474c1.583-0.916,2.558-2.604,2.558-4.432V25.248c0-1.855-1.004-3.565-2.624-4.469   L305.781,6.708z M301.849,131.122c0,0.456-0.244,0.879-0.64,1.106l-14.549,8.387c-0.395,0.227-0.882,0.227-1.277,0l-14.55-8.387   c-0.396-0.227-0.64-0.65-0.64-1.106v-16.8c0-0.456,0.244-0.879,0.639-1.108l14.549-8.403c0.396-0.229,0.884-0.229,1.28,0   l14.549,8.403c0.395,0.229,0.639,0.652,0.639,1.108V131.122z" fill="#333333"/><g><path d="M446.884,113.882c1.576-0.916,2.546-2.601,2.546-4.424V97.603c0-1.823-0.97-3.51-2.548-4.426    l-42.103-24.446c-1.584-0.921-3.54-0.922-5.127-0.007l-42.36,24.455c-1.583,0.914-2.558,2.603-2.558,4.431v48.908    c0,1.84,0.987,3.536,2.585,4.446l42.097,23.988c1.553,0.886,3.455,0.896,5.018,0.028l25.462-14.153    c0.808-0.449,1.311-1.297,1.315-2.219c0.007-0.922-0.484-1.776-1.284-2.236l-42.629-24.467c-0.796-0.456-1.285-1.304-1.285-2.22    v-15.327c0-0.914,0.488-1.76,1.28-2.216l13.267-7.649c0.79-0.456,1.765-0.456,2.554,0l13.274,7.649    c0.793,0.456,1.28,1.302,1.28,2.216v12.059c0,0.916,0.49,1.762,1.282,2.218c0.793,0.458,1.77,0.454,2.561-0.005L446.884,113.882z" fill="#333333"/><path d="M401.591,111.591c0.304-0.176,0.678-0.176,0.982,0l8.131,4.691c0.304,0.176,0.491,0.499,0.491,0.851v9.389    c0,0.352-0.187,0.675-0.491,0.851l-8.131,4.691c-0.304,0.176-0.678,0.176-0.982,0l-8.125-4.691    c-0.304-0.176-0.491-0.499-0.491-0.851v-9.389c0-0.352,0.187-0.675,0.491-0.851L401.591,111.591z" fill="#699F63"/></g><g><linearGradient gradientTransform="matrix(1 0 0 -1 0 284.11)" gradientUnits="userSpaceOnUse" id="XMLID_2_" x1="123.196" x2="217.4" y1="162.1965" y2="162.1965"><stop offset="0.0053" style="stop-color:#000000"/><stop offset="0.1938" style="stop-color:#171717"/><stop offset="0.5423" style="stop-color:#3D3D3D"/><stop offset="0.8235" style="stop-color:#545454"/><stop offset="1" style="stop-color:#5C5C5C"/></linearGradient><path d="M167.756,68.979c1.57-0.907,3.505-0.907,5.075,0l42.03,24.255    c1.572,0.907,2.539,2.582,2.539,4.397v48.546c0,1.813-0.967,3.489-2.538,4.397l-42.03,24.274c-1.571,0.907-3.507,0.907-5.078,0    l-42.021-24.274c-1.57-0.908-2.537-2.583-2.537-4.397V97.629c0-1.813,0.968-3.489,2.539-4.395L167.756,68.979z" fill="url(#XMLID_2_)" id="XMLID_67_"/><g><g><defs><path d="M172.841,68.979c-1.57-0.907-3.505-0.907-5.075,0l-42.03,24.255c-1.572,0.907-2.539,2.582-2.539,4.397       v48.546c0,1.813,0.968,3.489,2.538,4.397l42.03,24.274c1.571,0.907,3.507,0.907,5.078,0l42.021-24.274       c1.57-0.908,2.537-2.583,2.537-4.397V97.629c0-1.813-0.967-3.489-2.539-4.395L172.841,68.979z" id="SVGID_1_"/></defs><clipPath id="SVGID_2_"><use overflow="visible" xlink:href="#SVGID_1_"/></clipPath><g clip-path="url(#SVGID_2_)"><path d="M167.707,68.979l-42.07,24.255c-1.571,0.907-2.637,2.582-2.637,4.395v48.548       c0,1.178,0.444,2.293,1.182,3.182l47.297-80.907C170.216,68.142,168.857,68.314,167.707,68.979z" fill="none"/><path d="M171.746,175.275c0.337-0.109,0.669-0.245,0.986-0.428l41.93-24.274c1.57-0.908,2.337-2.583,2.337-4.397       V97.63c0-1.218-0.36-2.367-1.066-3.269L171.746,175.275z" fill="none"/><path d="M214.649,93.233l-41.843-24.255       c-0.419-0.242-0.867-0.414-1.327-0.527l-47.297,80.907c0.398,0.48,0.878,0.896,1.428,1.214l42.094,24.274       c1.255,0.724,2.707,0.86,4.042,0.428l44.188-80.914C215.588,93.919,215.165,93.531,214.649,93.233z" enable-background="new    " fill="#B4B4B4" opacity="0.66"/></g></g><g><defs><path d="M172.841,68.979c-1.57-0.907-3.505-0.907-5.075,0l-42.03,24.255c-1.572,0.907-2.539,2.582-2.539,4.397       v48.546c0,1.813,0.968,3.489,2.538,4.397l42.03,24.274c1.571,0.907,3.507,0.907,5.078,0l42.021-24.274       c1.57-0.908,2.537-2.583,2.537-4.397V97.629c0-1.813-0.967-3.489-2.539-4.395L172.841,68.979z" id="SVGID_3_"/></defs><clipPath id="SVGID_4_"><use overflow="visible" xlink:href="#SVGID_3_"/></clipPath><g clip-path="url(#SVGID_4_)"><path d="M126.114,92.958l-0.477,0.275C124.066,94.14,123,95.815,123,97.628v48.548c0,1.813,1.041,3.489,2.61,4.397       l42.094,24.274c1.134,0.655,2.431,0.829,3.656,0.539L126.114,92.958z" fill="none"/><path d="M217,97.63c0-1.815-0.78-3.49-2.351-4.397l-41.843-24.255c-0.37-0.214-0.763-0.373-1.166-0.486       L217,145.986V97.63z" fill="none"/><linearGradient gradientTransform="matrix(1 0 0 -1 0 284.11)" gradientUnits="userSpaceOnUse" id="SVGID_5_" x1="122.545" x2="219.7228" y1="162.2655" y2="162.2655"><stop offset="0" style="stop-color:#5C5C5C"/><stop offset="0.1765" style="stop-color:#545454"/><stop offset="0.4577" style="stop-color:#3D3D3D"/><stop offset="0.8062" style="stop-color:#171717"/><stop offset="0.9947" style="stop-color:#000000"/></linearGradient><path d="M172.732,174.847l41.93-24.274c1.57-0.908,2.337-2.583,2.337-4.397v-0.19l-45.36-77.493       c-1.307-0.366-2.733-0.207-3.933,0.486l-41.593,23.98l45.246,82.428C171.832,175.274,172.295,175.1,172.732,174.847z" fill="url(#SVGID_5_)"/></g></g></g></g></g></svg>